Land_normalized_Motion_pl14
version=1
nRows=10
nColumns=43
inDegrees=yes
endheader
time		pelvis_tilt		pelvis_list		pelvis_rotation		pelvis_tx		pelvis_ty		pelvis_tz		hip_flexion_r		hip_adduction_r		hip_rotation_r		knee_angle_r		ankle_angle_r		subtalar_angle_r		mtp_angle_r		hip_flexion_l		hip_adduction_l		hip_rotation_l		knee_angle_l		ankle_angle_l		subtalar_angle_l		mtp_angle_l		lumbar_extension		lumbar_bending		lumbar_rotation		neck_flexion		neck_lateral_bending		neck_rotation		arm_flex_r		arm_add_r		arm_rot_r		elbow_flex_r		pro_sup_r		wrist_flex_r		wrist_dev_r		hand_finger_flex_r		arm_flex_l		arm_add_l		arm_rot_l		elbow_flex_l		pro_sup_l		wrist_flex_l		wrist_dev_l		hand_finger_flex_l		
1.072500		-0.291129		8.653517		86.568919		0.011699		0.449358		0.540415		89.686426		-0.249342		-2.841861		-136.082636		18.058155		2.392917		34.827883		85.400112		-15.410400		1.080893		-137.141738		22.420315		10.426367		38.147608		-62.981625		-4.242618		0.314548		11.632625		-2.325528		2.037861		62.056129		-28.640144		16.915428		65.459999		113.473411		-18.910729		2.946419		22.654454		56.227663		-36.720994		14.065224		73.727720		101.340164		-19.282086		-2.002676		28.607649		
1.075606		-0.505775		8.503876		86.473714		0.011949		0.444733		0.540146		90.440706		-0.236718		-2.789257		-136.627543		18.308359		2.107122		34.656846		85.844229		-15.554343		0.759646		-137.643368		22.955265		10.040344		38.184929		-63.069254		-4.503355		0.407615		12.035934		-2.188478		1.839019		64.300392		-28.499678		17.366245		65.135372		113.504927		-18.890121		3.040073		22.532382		58.960635		-36.476601		15.495068		73.405277		101.284084		-19.394348		-1.689105		28.634764		
1.078712		-0.796016		8.379014		86.371408		0.012182		0.440322		0.539864		91.181140		-0.207525		-2.633677		-137.167462		18.546725		1.866543		34.330194		86.218543		-15.716032		0.330643		-138.121150		23.405899		9.611158		38.227580		-63.192904		-4.854600		0.550858		12.466724		-1.930597		1.499321		66.420491		-28.546486		17.800974		64.932337		113.309141		-18.999253		3.181834		22.365675		61.869547		-36.124620		17.296416		72.940115		100.776578		-19.912915		-1.360916		28.512031		
1.081818		-0.936400		8.127361		86.263214		0.012211		0.435742		0.539534		92.022900		-0.179193		-2.612829		-137.670430		18.839432		1.739891		34.207288		86.826179		-15.866083		0.111603		-138.638934		23.881279		9.333617		38.240094		-63.184157		-5.010186		0.673759		12.945724		-1.974710		1.352614		68.728006		-28.435445		18.437942		64.566305		113.454872		-18.702120		3.233214		22.387675		64.339213		-35.793857		18.391032		72.629910		100.757143		-19.767545		-1.200322		28.470126		
1.084924		-1.253506		8.092880		86.183345		0.012344		0.431878		0.539282		92.638692		-0.143809		-2.393052		-138.170399		18.992672		1.551952		33.704390		87.078909		-16.026825		-0.369105		-139.076199		24.212870		8.863413		38.229393		-63.430912		-5.380381		0.841569		13.393709		-1.631663		0.913188		70.843673		-28.655890		19.015502		64.391352		113.234430		-18.863019		3.440411		22.301668		67.341811		-35.309066		20.358222		72.015142		100.080140		-20.140628		-0.926188		27.943539		
1.088030		-1.399720		7.770809		86.098754		0.012213		0.427432		0.538891		93.513339		-0.099926		-2.338253		-138.628169		19.340159		1.442589		33.583397		87.819523		-16.175009		-0.557376		-139.588905		24.565695		8.688758		38.225024		-63.365072		-5.480478		0.916161		13.959366		-1.732793		0.772450		73.163637		-28.551182		19.831177		64.016357		113.450459		-18.480079		3.465727		22.387909		69.621114		-34.960036		21.247849		71.742064		100.149863		-19.878291		-0.829375		27.858714		
1.091136		-1.550689		7.541946		86.048029		0.011974		0.423430		0.538573		94.240298		-0.040816		-2.231142		-139.051840		19.619252		1.312016		33.406576		88.443934		-16.266954		-0.756136		-140.048243		24.825241		8.463203		38.209692		-63.418282		-5.576927		1.018537		14.464318		-1.751153		0.565936		75.533201		-28.562340		20.778697		63.582625		113.677854		-18.174580		3.534854		22.450437		72.040921		-34.603663		22.380836		71.413204		100.246988		-19.557347		-0.690616		27.700460		
1.094242		-1.711033		7.332321		86.025397		0.011729		0.419602		0.538253		94.901147		0.010984		-2.116111		-139.453332		19.962021		1.175617		33.197445		89.078588		-16.341813		-0.936563		-140.494220		24.977904		8.259142		38.185923		-63.499839		-5.656850		1.095663		15.008299		-1.750534		0.336244		77.890746		-28.561674		21.782922		63.148200		113.861590		-17.937084		3.629803		22.502171		74.450719		-34.245541		23.538081		71.065460		100.317387		-19.254819		-0.568858		27.468544		
1.097348		-1.858712		7.119857		86.018775		0.011425		0.415916		0.537945		95.514787		0.058200		-2.003087		-139.829241		20.366839		1.052704		32.954292		89.752300		-16.386909		-1.062428		-140.925675		25.044245		8.097367		38.155633		-63.585699		-5.702557		1.167605		15.563893		-1.765349		0.115799		80.270148		-28.529563		22.852597		62.661888		114.016692		-17.724464		3.734276		22.563050		76.824947		-33.910461		24.712346		70.722723		100.364181		-18.948213		-0.475817		27.185000		
1.100455		-2.023106		7.024425		86.021775		0.011105		0.412700		0.537728		95.924523		0.081489		-1.869898		-140.178878		21.014291		1.011937		31.712369		90.282834		-16.419580		-1.203675		-141.321560		25.002753		7.891709		38.002439		-63.824028		-5.770322		1.243850		16.191857		-1.703359		-0.153513		82.753531		-28.625610		24.389363		62.131229		113.283512		-18.379468		4.010052		22.748032		79.429062		-33.716914		26.531802		70.306542		99.300204		-19.071392		-0.546003		25.689976		
